<svg id="Layer_1" data-name="Layer 1" xmlns="http://www.w3.org/2000/svg" viewBox="0 0 768.37 523.9"><defs><style>.cls-1{font-size:400px;font-family:Roboto-Regular, Roboto;}</style></defs><title>auraloss-logo</title><text class="cls-1" transform="translate(0 342.19)">al</text><path d="M805.29,238.26c-27.28,7.41-50.18,33.17-53.21,59.95L750.9,308h33.85l1.18-5.55c3-13.64,13.47-25.94,25.26-29.81,3.37-1.18,11.11-1.69,17-1.35,13.8.84,22.9,6.91,29.64,19.7,9.76,18.52,3.87,39.57-13.81,50.18l-9.1,5.56H655.41v35.36h88.08c96,0,98.85-.17,116.36-9.76,25.59-14,41.09-45.47,36.54-74.43C889.49,254.93,846.89,227.14,805.29,238.26Z" transform="translate(-327.63 -162.52)"/><path d="M1010.06,298c-12.46,2-29.3,11.11-38.9,20.88-12.12,12.29-20.88,32-21,46.65v4.71h16.67c18.36,0,17.18.68,19.54-11.28,2.86-14.48,20.54-27.45,36.88-27.45,22.9.17,39.4,18.69,37.72,42.1a38,38,0,0,1-28.12,33.68c-3.87,1-72.58,1.69-191.64,1.69H655.41v33.67l193.33-.33,193.15-.51,11.45-5.39c45.81-21.72,57.09-80.16,22.24-116.53-11.29-11.79-22.24-18-37.39-21.22C1025.56,296,1022.19,295.85,1010.06,298Z" transform="translate(-327.63 -162.52)"/><path d="M655.41,487.32V505h128c139.94,0,134.72-.34,145.33,9.76,20,19,14.14,52.88-11,63.32-3.54,1.52-10.61,2.7-16,2.7-18,0-32.17-11.62-36.88-30.31l-1.85-7.58-15.67-.5c-8.58-.17-16.33.16-17.18,1-2.35,2.36,3,24.75,8.26,34.36C852.78,604.2,884.78,620,914.08,615a74.71,74.71,0,0,0,55.07-42.1c5.05-10.77,5.39-12.63,5.39-30s-.34-19.2-5.39-30c-6.4-13.31-19.2-27.46-30.48-33.68-17.86-9.6-16.67-9.6-155.61-9.6H655.41Z" transform="translate(-327.63 -162.52)"/></svg>